<?xml version="1.0" encoding="UTF-8" standalone="no"?>
<!-- Created with Inkscape (http://www.inkscape.org/) -->

<svg
   xmlns:dc="http://purl.org/dc/elements/1.1/"
   xmlns:cc="http://creativecommons.org/ns#"
   xmlns:rdf="http://www.w3.org/1999/02/22-rdf-syntax-ns#"
   xmlns:svg="http://www.w3.org/2000/svg"
   xmlns="http://www.w3.org/2000/svg"
   xmlns:sodipodi="http://sodipodi.sourceforge.net/DTD/sodipodi-0.dtd"
   xmlns:inkscape="http://www.inkscape.org/namespaces/inkscape"
   width="516.5"
   height="496.5"
   id="svg7088"
   version="1.1"
   inkscape:version="0.47 r22583"
   sodipodi:docname="mega.svg">
  <defs
     id="defs7090">
    <linearGradient
       id="linearGradient3765">
      <stop
         style="stop-color:#3be11e;stop-opacity:1;"
         offset="0"
         id="stop3767" />
      <stop
         style="stop-color:#255d21;stop-opacity:1;"
         offset="1"
         id="stop3769" />
    </linearGradient>
    <linearGradient
       id="linearGradient3751">
      <stop
         id="stop3763"
         offset="0"
         style="stop-color:#0fb30f;stop-opacity:1;" />
      <stop
         id="stop3759"
         offset="1"
         style="stop-color:#0aa20a;stop-opacity:1;" />
    </linearGradient>
    <inkscape:perspective
       sodipodi:type="inkscape:persp3d"
       inkscape:vp_x="0 : 526.18109 : 1"
       inkscape:vp_y="0 : 1000 : 0"
       inkscape:vp_z="744.09448 : 526.18109 : 1"
       inkscape:persp3d-origin="372.04724 : 350.78739 : 1"
       id="perspective7096" />
    <inkscape:perspective
       id="perspective7083"
       inkscape:persp3d-origin="0.5 : 0.33333333 : 1"
       inkscape:vp_z="1 : 0.5 : 1"
       inkscape:vp_y="0 : 1000 : 0"
       inkscape:vp_x="0 : 0.5 : 1"
       sodipodi:type="inkscape:persp3d" />
    <inkscape:perspective
       id="perspective7115"
       inkscape:persp3d-origin="0.5 : 0.33333333 : 1"
       inkscape:vp_z="1 : 0.5 : 1"
       inkscape:vp_y="0 : 1000 : 0"
       inkscape:vp_x="0 : 0.5 : 1"
       sodipodi:type="inkscape:persp3d" />
    <inkscape:perspective
       id="perspective2849"
       inkscape:persp3d-origin="0.5 : 0.33333333 : 1"
       inkscape:vp_z="1 : 0.5 : 1"
       inkscape:vp_y="0 : 1000 : 0"
       inkscape:vp_x="0 : 0.5 : 1"
       sodipodi:type="inkscape:persp3d" />
    <inkscape:perspective
       id="perspective2863"
       inkscape:persp3d-origin="0.5 : 0.33333333 : 1"
       inkscape:vp_z="1 : 0.5 : 1"
       inkscape:vp_y="0 : 1000 : 0"
       inkscape:vp_x="0 : 0.5 : 1"
       sodipodi:type="inkscape:persp3d" />
    <inkscape:perspective
       id="perspective2885"
       inkscape:persp3d-origin="0.5 : 0.33333333 : 1"
       inkscape:vp_z="1 : 0.5 : 1"
       inkscape:vp_y="0 : 1000 : 0"
       inkscape:vp_x="0 : 0.5 : 1"
       sodipodi:type="inkscape:persp3d" />
    <inkscape:perspective
       id="perspective2946"
       inkscape:persp3d-origin="0.5 : 0.33333333 : 1"
       inkscape:vp_z="1 : 0.5 : 1"
       inkscape:vp_y="0 : 1000 : 0"
       inkscape:vp_x="0 : 0.5 : 1"
       sodipodi:type="inkscape:persp3d" />
    <inkscape:perspective
       id="perspective2970"
       inkscape:persp3d-origin="0.5 : 0.33333333 : 1"
       inkscape:vp_z="1 : 0.5 : 1"
       inkscape:vp_y="0 : 1000 : 0"
       inkscape:vp_x="0 : 0.5 : 1"
       sodipodi:type="inkscape:persp3d" />
    <inkscape:perspective
       id="perspective2997"
       inkscape:persp3d-origin="0.5 : 0.33333333 : 1"
       inkscape:vp_z="1 : 0.5 : 1"
       inkscape:vp_y="0 : 1000 : 0"
       inkscape:vp_x="0 : 0.5 : 1"
       sodipodi:type="inkscape:persp3d" />
    <inkscape:perspective
       id="perspective2839"
       inkscape:persp3d-origin="0.5 : 0.33333333 : 1"
       inkscape:vp_z="1 : 0.5 : 1"
       inkscape:vp_y="0 : 1000 : 0"
       inkscape:vp_x="0 : 0.5 : 1"
       sodipodi:type="inkscape:persp3d" />
    <inkscape:perspective
       id="perspective2874"
       inkscape:persp3d-origin="0.5 : 0.33333333 : 1"
       inkscape:vp_z="1 : 0.5 : 1"
       inkscape:vp_y="0 : 1000 : 0"
       inkscape:vp_x="0 : 0.5 : 1"
       sodipodi:type="inkscape:persp3d" />
    <inkscape:perspective
       id="perspective3684"
       inkscape:persp3d-origin="0.5 : 0.33333333 : 1"
       inkscape:vp_z="1 : 0.5 : 1"
       inkscape:vp_y="0 : 1000 : 0"
       inkscape:vp_x="0 : 0.5 : 1"
       sodipodi:type="inkscape:persp3d" />
    <inkscape:perspective
       id="perspective3656"
       inkscape:persp3d-origin="0.5 : 0.33333333 : 1"
       inkscape:vp_z="1 : 0.5 : 1"
       inkscape:vp_y="0 : 1000 : 0"
       inkscape:vp_x="0 : 0.5 : 1"
       sodipodi:type="inkscape:persp3d" />
    <inkscape:perspective
       id="perspective3681"
       inkscape:persp3d-origin="0.5 : 0.33333333 : 1"
       inkscape:vp_z="1 : 0.5 : 1"
       inkscape:vp_y="0 : 1000 : 0"
       inkscape:vp_x="0 : 0.5 : 1"
       sodipodi:type="inkscape:persp3d" />
    <inkscape:perspective
       id="perspective3706"
       inkscape:persp3d-origin="0.5 : 0.33333333 : 1"
       inkscape:vp_z="1 : 0.5 : 1"
       inkscape:vp_y="0 : 1000 : 0"
       inkscape:vp_x="0 : 0.5 : 1"
       sodipodi:type="inkscape:persp3d" />
    <inkscape:perspective
       id="perspective3706-4"
       inkscape:persp3d-origin="0.5 : 0.33333333 : 1"
       inkscape:vp_z="1 : 0.5 : 1"
       inkscape:vp_y="0 : 1000 : 0"
       inkscape:vp_x="0 : 0.5 : 1"
       sodipodi:type="inkscape:persp3d" />
    <inkscape:perspective
       id="perspective3706-8"
       inkscape:persp3d-origin="0.5 : 0.33333333 : 1"
       inkscape:vp_z="1 : 0.5 : 1"
       inkscape:vp_y="0 : 1000 : 0"
       inkscape:vp_x="0 : 0.5 : 1"
       sodipodi:type="inkscape:persp3d" />
    <inkscape:perspective
       id="perspective3706-45"
       inkscape:persp3d-origin="0.5 : 0.33333333 : 1"
       inkscape:vp_z="1 : 0.5 : 1"
       inkscape:vp_y="0 : 1000 : 0"
       inkscape:vp_x="0 : 0.5 : 1"
       sodipodi:type="inkscape:persp3d" />
    <inkscape:perspective
       id="perspective3706-1"
       inkscape:persp3d-origin="0.5 : 0.33333333 : 1"
       inkscape:vp_z="1 : 0.5 : 1"
       inkscape:vp_y="0 : 1000 : 0"
       inkscape:vp_x="0 : 0.5 : 1"
       sodipodi:type="inkscape:persp3d" />
    <inkscape:perspective
       id="perspective3764"
       inkscape:persp3d-origin="0.5 : 0.33333333 : 1"
       inkscape:vp_z="1 : 0.5 : 1"
       inkscape:vp_y="0 : 1000 : 0"
       inkscape:vp_x="0 : 0.5 : 1"
       sodipodi:type="inkscape:persp3d" />
    <inkscape:perspective
       id="perspective3800"
       inkscape:persp3d-origin="0.5 : 0.33333333 : 1"
       inkscape:vp_z="1 : 0.5 : 1"
       inkscape:vp_y="0 : 1000 : 0"
       inkscape:vp_x="0 : 0.5 : 1"
       sodipodi:type="inkscape:persp3d" />
    <inkscape:perspective
       id="perspective3825"
       inkscape:persp3d-origin="0.5 : 0.33333333 : 1"
       inkscape:vp_z="1 : 0.5 : 1"
       inkscape:vp_y="0 : 1000 : 0"
       inkscape:vp_x="0 : 0.5 : 1"
       sodipodi:type="inkscape:persp3d" />
    <inkscape:perspective
       id="perspective3825-2"
       inkscape:persp3d-origin="0.5 : 0.33333333 : 1"
       inkscape:vp_z="1 : 0.5 : 1"
       inkscape:vp_y="0 : 1000 : 0"
       inkscape:vp_x="0 : 0.5 : 1"
       sodipodi:type="inkscape:persp3d" />
    <inkscape:perspective
       id="perspective3861"
       inkscape:persp3d-origin="0.5 : 0.33333333 : 1"
       inkscape:vp_z="1 : 0.5 : 1"
       inkscape:vp_y="0 : 1000 : 0"
       inkscape:vp_x="0 : 0.5 : 1"
       sodipodi:type="inkscape:persp3d" />
    <inkscape:perspective
       id="perspective3861-6"
       inkscape:persp3d-origin="0.5 : 0.33333333 : 1"
       inkscape:vp_z="1 : 0.5 : 1"
       inkscape:vp_y="0 : 1000 : 0"
       inkscape:vp_x="0 : 0.5 : 1"
       sodipodi:type="inkscape:persp3d" />
    <inkscape:perspective
       id="perspective3861-7"
       inkscape:persp3d-origin="0.5 : 0.33333333 : 1"
       inkscape:vp_z="1 : 0.5 : 1"
       inkscape:vp_y="0 : 1000 : 0"
       inkscape:vp_x="0 : 0.5 : 1"
       sodipodi:type="inkscape:persp3d" />
    <inkscape:perspective
       id="perspective3908"
       inkscape:persp3d-origin="0.5 : 0.33333333 : 1"
       inkscape:vp_z="1 : 0.5 : 1"
       inkscape:vp_y="0 : 1000 : 0"
       inkscape:vp_x="0 : 0.5 : 1"
       sodipodi:type="inkscape:persp3d" />
    <inkscape:perspective
       id="perspective3908-7"
       inkscape:persp3d-origin="0.5 : 0.33333333 : 1"
       inkscape:vp_z="1 : 0.5 : 1"
       inkscape:vp_y="0 : 1000 : 0"
       inkscape:vp_x="0 : 0.5 : 1"
       sodipodi:type="inkscape:persp3d" />
    <inkscape:perspective
       id="perspective3908-3"
       inkscape:persp3d-origin="0.5 : 0.33333333 : 1"
       inkscape:vp_z="1 : 0.5 : 1"
       inkscape:vp_y="0 : 1000 : 0"
       inkscape:vp_x="0 : 0.5 : 1"
       sodipodi:type="inkscape:persp3d" />
  </defs>
  <sodipodi:namedview
     id="base"
     pagecolor="#ffffff"
     bordercolor="#666666"
     borderopacity="1.0"
     inkscape:pageopacity="0.0"
     inkscape:pageshadow="2"
     inkscape:zoom="0.42140343"
     inkscape:cx="180.77663"
     inkscape:cy="312.21621"
     inkscape:document-units="px"
     inkscape:current-layer="layer1"
     showgrid="false"
     showguides="false"
     inkscape:guide-bbox="true"
     inkscape:window-width="1024"
     inkscape:window-height="544"
     inkscape:window-x="-4"
     inkscape:window-y="-4"
     inkscape:window-maximized="1"
     inkscape:snap-global="true"
     inkscape:snap-grids="false">
    <sodipodi:guide
       orientation="1,0"
       position="285.25671,192.96777"
       id="guide3624" />
    <sodipodi:guide
       orientation="1,0"
       position="224.8494,115.78066"
       id="guide3626" />
    <sodipodi:guide
       orientation="1,0"
       position="219.81546,121.6536"
       id="guide3628" />
    <sodipodi:guide
       orientation="1,0"
       position="290.29065,58.729322"
       id="guide3630" />
    <sodipodi:guide
       orientation="0,1"
       position="259.24801,83.899031"
       id="guide3632" />
    <sodipodi:guide
       orientation="0,1"
       position="264.28195,180.38292"
       id="guide3634" />
    <sodipodi:guide
       orientation="0,1"
       position="276.02781,253.37507"
       id="guide3636" />
    <sodipodi:guide
       orientation="1,0"
       position="252.53608,311.26541"
       id="guide3638" />
    <sodipodi:guide
       orientation="1,0"
       position="257.57003,321.33329"
       id="guide3640" />
    <sodipodi:guide
       orientation="1,0"
       position="199.67969,275.18882"
       id="guide3642" />
    <sodipodi:guide
       orientation="1,0"
       position="309.58742,301.19752"
       id="guide3644" />
    <sodipodi:guide
       orientation="0,1"
       position="285.25671,291.12964"
       id="guide3646" />
  </sodipodi:namedview>
  <metadata
     id="metadata7093">
    <rdf:RDF>
      <cc:Work
         rdf:about="">
        <dc:format>image/svg+xml</dc:format>
        <dc:type
           rdf:resource="http://purl.org/dc/dcmitype/StillImage" />
        <dc:title></dc:title>
      </cc:Work>
    </rdf:RDF>
  </metadata>
  <g
     inkscape:label="Layer 1"
     inkscape:groupmode="layer"
     id="layer1"
     transform="translate(-118.89286,-269.82648)">
    <path
       sodipodi:type="arc"
       style="fill:#ffcf00;fill-opacity:1;stroke:#000000;stroke-width:11.19246322;stroke-linejoin:miter;stroke-miterlimit:4;stroke-opacity:1;stroke-dasharray:none"
       id="path3620-1-4-5-7-3-8-1"
       sodipodi:cx="66.518799"
       sodipodi:cy="227.25723"
       sodipodi:rx="85.52417"
       sodipodi:ry="85.52417"
       d="m 152.04297,227.25723 a 85.52417,85.52417 0 1 1 -171.048341,0 85.52417,85.52417 0 1 1 171.048341,0 z"
       transform="matrix(0.35738335,0,0,0.35738335,183.75025,273.41654)" />
    <path
       style="fill:#ffcf00;fill-opacity:1;stroke:#000000;stroke-width:4;stroke-linecap:butt;stroke-linejoin:miter;stroke-opacity:1;stroke-miterlimit:4;stroke-dasharray:none"
       d="m 205.70733,577.0806 -25.13434,0 0,-153.85259 -4.56986,0 0,66.26324 -18.27952,0 0,-66.26324 c 0,-34.64693 1.88247,-34.2741 49.88783,-34.2741 48.00537,0 49.88786,0.38881 49.88786,34.2741 l 0,66.26324 -17.51787,0 0,-66.26324 -4.56987,0 0,153.85259 -25.13434,0 0,-87.58935 -4.56989,0 0,87.58935 z"
       id="path3622-7-0-2-6-2-5-23"
       sodipodi:nodetypes="ccccccszsccccccccc" />
    <path
       sodipodi:type="arc"
       style="fill:#ffcf00;fill-opacity:1;stroke:#000000;stroke-width:11.19246322;stroke-linejoin:miter;stroke-miterlimit:4;stroke-opacity:1;stroke-dasharray:none"
       id="path3620-1-4-5-7-3-8-95"
       sodipodi:cx="66.518799"
       sodipodi:cy="227.25723"
       sodipodi:rx="85.52417"
       sodipodi:ry="85.52417"
       d="m 152.04297,227.25723 a 85.52417,85.52417 0 1 1 -171.048341,0 85.52417,85.52417 0 1 1 171.048341,0 z"
       transform="matrix(0.35738335,0,0,0.35738335,286.97674,273.41654)" />
    <path
       style="fill:#ffcf00;fill-opacity:1;stroke:#000000;stroke-width:4;stroke-linecap:butt;stroke-linejoin:miter;stroke-opacity:1;stroke-miterlimit:4;stroke-dasharray:none"
       d="m 308.93382,577.0806 -25.13434,0 0,-153.85259 -4.56986,0 0,66.26324 -18.27952,0 0,-66.26324 c 0,-34.64693 1.88247,-34.2741 49.88783,-34.2741 48.00537,0 49.88786,0.38881 49.88786,34.2741 l 0,66.26324 -17.51787,0 0,-66.26324 -4.56987,0 0,153.85259 -25.13434,0 0,-87.58935 -4.56989,0 0,87.58935 z"
       id="path3622-7-0-2-6-2-5-4"
       sodipodi:nodetypes="ccccccszsccccccccc" />
    <path
       sodipodi:type="arc"
       style="fill:#ffcf00;fill-opacity:1;stroke:#000000;stroke-width:11.19246322;stroke-linejoin:miter;stroke-miterlimit:4;stroke-opacity:1;stroke-dasharray:none"
       id="path3620-1-4-5-7-3-8-9"
       sodipodi:cx="66.518799"
       sodipodi:cy="227.25723"
       sodipodi:rx="85.52417"
       sodipodi:ry="85.52417"
       d="m 152.04297,227.25723 a 85.52417,85.52417 0 1 1 -171.048341,0 85.52417,85.52417 0 1 1 171.048341,0 z"
       transform="matrix(0.35738335,0,0,0.35738335,390.20324,274.60305)" />
    <path
       style="fill:#ffcf00;fill-opacity:1;stroke:#000000;stroke-width:4;stroke-linecap:butt;stroke-linejoin:miter;stroke-opacity:1;stroke-miterlimit:4;stroke-dasharray:none"
       d="m 412.16032,578.26711 -25.13434,0 0,-153.85259 -4.56986,0 0,66.26324 -18.27952,0 0,-66.26324 c 0,-34.64693 1.88247,-34.2741 49.88783,-34.2741 48.00537,0 49.88786,0.38881 49.88786,34.2741 l 0,66.26324 -17.51787,0 0,-66.26324 -4.56987,0 0,153.85259 -25.13434,0 0,-87.58935 -4.56989,0 0,87.58935 z"
       id="path3622-7-0-2-6-2-5-2"
       sodipodi:nodetypes="ccccccszsccccccccc" />
    <path
       sodipodi:type="arc"
       style="fill:#ffcf00;fill-opacity:1;stroke:#000000;stroke-width:11.19246322;stroke-linejoin:miter;stroke-miterlimit:4;stroke-opacity:1;stroke-dasharray:none"
       id="path3620-1-4-5-7-3-8"
       sodipodi:cx="66.518799"
       sodipodi:cy="227.25723"
       sodipodi:rx="85.52417"
       sodipodi:ry="85.52417"
       d="m 152.04297,227.25723 a 85.52417,85.52417 0 1 1 -171.048341,0 85.52417,85.52417 0 1 1 171.048341,0 z"
       transform="matrix(0.35738335,0,0,0.35738335,493.42974,275.78956)" />
    <path
       style="fill:#ffcf00;fill-opacity:1;stroke:#000000;stroke-width:4;stroke-linecap:butt;stroke-linejoin:miter;stroke-opacity:1;stroke-miterlimit:4;stroke-dasharray:none"
       d="m 515.38682,579.45362 -25.13434,0 0,-153.85259 -4.56986,0 0,66.26324 -18.27952,0 0,-66.26324 c 0,-34.64693 1.88247,-34.2741 49.88783,-34.2741 48.00537,0 49.88786,0.38881 49.88786,34.2741 l 0,66.26324 -17.51787,0 0,-66.26324 -4.56987,0 0,153.85259 -25.13434,0 0,-87.58935 -4.56989,0 0,87.58935 z"
       id="path3622-7-0-2-6-2-5"
       sodipodi:nodetypes="ccccccszsccccccccc" />
    <path
       sodipodi:type="arc"
       style="fill:#ff7700;fill-opacity:1;stroke:#000000;stroke-width:11.19246322;stroke-linejoin:miter;stroke-miterlimit:4;stroke-opacity:1;stroke-dasharray:none"
       id="path3620-1-4-5-7-3-2"
       sodipodi:cx="66.518799"
       sodipodi:cy="227.25723"
       sodipodi:rx="85.52417"
       sodipodi:ry="85.52417"
       d="m 152.04297,227.25723 a 85.52417,85.52417 0 1 1 -171.048341,0 85.52417,85.52417 0 1 1 171.048341,0 z"
       transform="matrix(0.35738335,0,0,0.35738335,546.82276,350.16677)" />
    <path
       style="fill:#ff7700;fill-opacity:1;stroke:#000000;stroke-width:4;stroke-linecap:butt;stroke-linejoin:miter;stroke-opacity:1;stroke-miterlimit:4;stroke-dasharray:none"
       d="m 568.77984,653.83083 -25.13434,0 0,-153.85259 -4.56986,0 0,66.26324 -18.27952,0 0,-66.26324 c 0,-34.64693 1.88247,-34.2741 49.88783,-34.2741 48.00537,0 49.88786,0.38881 49.88786,34.2741 l 0,66.26324 -17.51787,0 0,-66.26324 -4.56987,0 0,153.85259 -25.13434,0 0,-87.58935 -4.56989,0 0,87.58935 z"
       id="path3622-7-0-2-6-2-1"
       sodipodi:nodetypes="ccccccszsccccccccc" />
    <path
       sodipodi:type="arc"
       style="fill:#ff7700;fill-opacity:1;stroke:#000000;stroke-width:11.19246322;stroke-linejoin:miter;stroke-miterlimit:4;stroke-opacity:1;stroke-dasharray:none"
       id="path3620-1-4-5-7-3"
       sodipodi:cx="66.518799"
       sodipodi:cy="227.25723"
       sodipodi:rx="85.52417"
       sodipodi:ry="85.52417"
       d="m 152.04297,227.25723 a 85.52417,85.52417 0 1 1 -171.048341,0 85.52417,85.52417 0 1 1 171.048341,0 z"
       transform="matrix(0.35738335,0,0,0.35738335,440.03673,350.53978)" />
    <path
       style="fill:#ff7700;fill-opacity:1;stroke:#000000;stroke-width:4;stroke-linecap:butt;stroke-linejoin:miter;stroke-opacity:1;stroke-miterlimit:4;stroke-dasharray:none"
       d="m 461.99381,654.20384 -25.13434,0 0,-153.85259 -4.56986,0 0,66.26324 -18.27952,0 0,-66.26324 c 0,-34.64693 1.88247,-34.2741 49.88783,-34.2741 48.00537,0 49.88786,0.38881 49.88786,34.2741 l 0,66.26324 -17.51787,0 0,-66.26324 -4.56987,0 0,153.85259 -25.13434,0 0,-87.58935 -4.56989,0 0,87.58935 z"
       id="path3622-7-0-2-6-2"
       sodipodi:nodetypes="ccccccszsccccccccc" />
    <path
       sodipodi:type="arc"
       style="fill:#ff7700;fill-opacity:1;stroke:#000000;stroke-width:11.19246322;stroke-linejoin:miter;stroke-miterlimit:4;stroke-opacity:1;stroke-dasharray:none"
       id="path3620-1-4-5-7-1"
       sodipodi:cx="66.518799"
       sodipodi:cy="227.25723"
       sodipodi:rx="85.52417"
       sodipodi:ry="85.52417"
       d="m 152.04297,227.25723 a 85.52417,85.52417 0 1 1 -171.048341,0 85.52417,85.52417 0 1 1 171.048341,0 z"
       transform="matrix(0.35738335,0,0,0.35738335,329.69116,349.35328)" />
    <path
       style="fill:#ff7700;fill-opacity:1;stroke:#000000;stroke-width:4;stroke-linecap:butt;stroke-linejoin:miter;stroke-opacity:1;stroke-miterlimit:4;stroke-dasharray:none"
       d="m 351.64824,653.01734 -25.13434,0 0,-153.85259 -4.56986,0 0,66.26324 -18.27952,0 0,-66.26324 c 0,-34.64693 1.88247,-34.2741 49.88783,-34.2741 48.00537,0 49.88786,0.38881 49.88786,34.2741 l 0,66.26324 -17.51787,0 0,-66.26324 -4.56987,0 0,153.85259 -25.13434,0 0,-87.58935 -4.56989,0 0,87.58935 z"
       id="path3622-7-0-2-6-4"
       sodipodi:nodetypes="ccccccszsccccccccc" />
    <path
       sodipodi:type="arc"
       style="fill:#ff7700;fill-opacity:1;stroke:#000000;stroke-width:11.19246322;stroke-linejoin:miter;stroke-miterlimit:4;stroke-opacity:1;stroke-dasharray:none"
       id="path3620-1-4-5-7"
       sodipodi:cx="66.518799"
       sodipodi:cy="227.25723"
       sodipodi:rx="85.52417"
       sodipodi:ry="85.52417"
       d="m 152.04297,227.25723 a 85.52417,85.52417 0 1 1 -171.048341,0 85.52417,85.52417 0 1 1 171.048341,0 z"
       transform="matrix(0.35738335,0,0,0.35738335,215.78606,348.16676)" />
    <path
       style="fill:#ff7700;fill-opacity:1;stroke:#000000;stroke-width:4;stroke-linecap:butt;stroke-linejoin:miter;stroke-opacity:1;stroke-miterlimit:4;stroke-dasharray:none"
       d="m 237.74314,651.83082 -25.13434,0 0,-153.85259 -4.56986,0 0,66.26324 -18.27952,0 0,-66.26324 c 0,-34.64693 1.88247,-34.2741 49.88783,-34.2741 48.00537,0 49.88786,0.38881 49.88786,34.2741 l 0,66.26324 -17.51787,0 0,-66.26324 -4.56987,0 0,153.85259 -25.13434,0 0,-87.58935 -4.56989,0 0,87.58935 z"
       id="path3622-7-0-2-6"
       sodipodi:nodetypes="ccccccszsccccccccc" />
    <path
       sodipodi:type="arc"
       style="fill:#ff1600;fill-opacity:1;stroke:#000000;stroke-width:11.19246322;stroke-linejoin:miter;stroke-miterlimit:4;stroke-opacity:1;stroke-dasharray:none"
       id="path3620"
       sodipodi:cx="66.518799"
       sodipodi:cy="227.25723"
       sodipodi:rx="85.52417"
       sodipodi:ry="85.52417"
       d="m 152.04297,227.25723 a 85.52417,85.52417 0 1 1 -171.048341,0 85.52417,85.52417 0 1 1 171.048341,0 z"
       transform="matrix(0.35738335,0,0,0.35738335,161.72708,418.90674)" />
    <path
       style="fill:#ff1600;fill-opacity:1;stroke:#000000;stroke-width:4;stroke-linecap:butt;stroke-linejoin:miter;stroke-opacity:1;stroke-miterlimit:4;stroke-dasharray:none"
       d="m 183.68417,722.57082 -25.13434,0 0,-153.8526 -4.56987,0 0,66.26324 -18.27952,0 0,-66.26324 c 0,-34.64692 1.88247,-34.2741 49.88784,-34.2741 48.00536,0 49.88785,0.3888 49.88785,34.2741 l 0,66.26324 -17.51786,0 0,-66.26324 -4.56988,0 0,153.8526 -25.13434,0 0,-87.58936 -4.56988,0 0,87.58936 z"
       id="path3622"
       sodipodi:nodetypes="ccccccszsccccccccc" />
    <path
       sodipodi:type="arc"
       style="fill:#ff1600;fill-opacity:1;stroke:#000000;stroke-width:11.19246322;stroke-linejoin:miter;stroke-miterlimit:4;stroke-opacity:1;stroke-dasharray:none"
       id="path3620-1"
       sodipodi:cx="66.518799"
       sodipodi:cy="227.25723"
       sodipodi:rx="85.52417"
       sodipodi:ry="85.52417"
       d="m 152.04297,227.25723 a 85.52417,85.52417 0 1 1 -171.048341,0 85.52417,85.52417 0 1 1 171.048341,0 z"
       transform="matrix(0.35738335,0,0,0.35738335,273.09497,419.20674)" />
    <path
       style="fill:#ff1600;fill-opacity:1;stroke:#000000;stroke-width:4;stroke-linecap:butt;stroke-linejoin:miter;stroke-opacity:1;stroke-miterlimit:4;stroke-dasharray:none"
       d="m 295.05206,722.8708 -25.13434,0 0,-153.85259 -4.56988,0 0,66.26324 -18.27952,0 0,-66.26324 c 0,-34.64692 1.88248,-34.2741 49.88785,-34.2741 48.00536,0 49.88786,0.3888 49.88786,34.2741 l 0,66.26324 -17.51787,0 0,-66.26324 -4.56988,0 0,153.85259 -25.13434,0 0,-87.58935 -4.56988,0 0,87.58935 z"
       id="path3622-7"
       sodipodi:nodetypes="ccccccszsccccccccc" />
    <path
       sodipodi:type="arc"
       style="fill:#ff1600;fill-opacity:1;stroke:#000000;stroke-width:11.19246322;stroke-linejoin:miter;stroke-miterlimit:4;stroke-opacity:1;stroke-dasharray:none"
       id="path3620-1-4"
       sodipodi:cx="66.518799"
       sodipodi:cy="227.25723"
       sodipodi:rx="85.52417"
       sodipodi:ry="85.52417"
       d="m 152.04297,227.25723 a 85.52417,85.52417 0 1 1 -171.048341,0 85.52417,85.52417 0 1 1 171.048341,0 z"
       transform="matrix(0.35738335,0,0,0.35738335,385.11659,419.20675)" />
    <path
       style="fill:#ff1600;fill-opacity:1;stroke:#000000;stroke-width:4;stroke-linecap:butt;stroke-linejoin:miter;stroke-opacity:1;stroke-miterlimit:4;stroke-dasharray:none"
       d="m 407.07367,722.87081 -25.13434,0 0,-153.85259 -4.56987,0 0,66.26324 -18.27952,0 0,-66.26324 c 0,-34.64693 1.88248,-34.2741 49.88784,-34.2741 48.00537,0 49.88786,0.38881 49.88786,34.2741 l 0,66.26324 -17.51788,0 0,-66.26324 -4.56986,0 0,153.85259 -25.13434,0 0,-87.58935 -4.56989,0 0,87.58935 z"
       id="path3622-7-0"
       sodipodi:nodetypes="ccccccszsccccccccc" />
    <path
       sodipodi:type="arc"
       style="fill:#ff1600;fill-opacity:1;stroke:#000000;stroke-width:11.19246322;stroke-linejoin:miter;stroke-miterlimit:4;stroke-opacity:1;stroke-dasharray:none"
       id="path3620-1-4-5"
       sodipodi:cx="66.518799"
       sodipodi:cy="227.25723"
       sodipodi:rx="85.52417"
       sodipodi:ry="85.52417"
       d="m 152.04297,227.25723 a 85.52417,85.52417 0 1 1 -171.048341,0 85.52417,85.52417 0 1 1 171.048341,0 z"
       transform="matrix(0.35738335,0,0,0.35738335,495.85064,420.60704)" />
    <path
       style="fill:#ff1600;fill-opacity:1;stroke:#000000;stroke-width:4;stroke-linecap:butt;stroke-linejoin:miter;stroke-opacity:1;stroke-miterlimit:4;stroke-dasharray:none"
       d="m 517.80772,724.2711 -25.13434,0 0,-153.85259 -4.56986,0 0,66.26324 -18.27952,0 0,-66.26324 c 0,-34.64693 1.88247,-34.2741 49.88783,-34.2741 48.00537,0 49.88786,0.38881 49.88786,34.2741 l 0,66.26324 -17.51787,0 0,-66.26324 -4.56987,0 0,153.85259 -25.13434,0 0,-87.58935 -4.56989,0 0,87.58935 z"
       id="path3622-7-0-2"
       sodipodi:nodetypes="ccccccszsccccccccc" />
  </g>
</svg>
