<?xml version="1.0" encoding="UTF-8" standalone="no"?>
<!-- Created with Inkscape (http://www.inkscape.org/) -->

<svg
   xmlns:dc="http://purl.org/dc/elements/1.1/"
   xmlns:cc="http://creativecommons.org/ns#"
   xmlns:rdf="http://www.w3.org/1999/02/22-rdf-syntax-ns#"
   xmlns:svg="http://www.w3.org/2000/svg"
   xmlns="http://www.w3.org/2000/svg"
   xmlns:xlink="http://www.w3.org/1999/xlink"
   xmlns:sodipodi="http://sodipodi.sourceforge.net/DTD/sodipodi-0.dtd"
   xmlns:inkscape="http://www.inkscape.org/namespaces/inkscape"
   width="516.5"
   height="496.5"
   id="svg6509"
   version="1.1"
   inkscape:version="0.47 r22583"
   sodipodi:docname="winterfriendly.svg">
  <defs
     id="defs6511">
    <linearGradient
       id="linearGradient3927">
      <stop
         style="stop-color:#947233;stop-opacity:1;"
         offset="0"
         id="stop3929" />
      <stop
         style="stop-color:#c38b24;stop-opacity:1;"
         offset="1"
         id="stop3931" />
    </linearGradient>
    <inkscape:path-effect
       effect="spiro"
       id="path-effect3744"
       is_visible="true" />
    <inkscape:perspective
       sodipodi:type="inkscape:persp3d"
       inkscape:vp_x="0 : 526.18109 : 1"
       inkscape:vp_y="0 : 1000 : 0"
       inkscape:vp_z="744.09448 : 526.18109 : 1"
       inkscape:persp3d-origin="372.04724 : 350.78739 : 1"
       id="perspective6517" />
    <inkscape:perspective
       id="perspective6527"
       inkscape:persp3d-origin="0.5 : 0.33333333 : 1"
       inkscape:vp_z="1 : 0.5 : 1"
       inkscape:vp_y="0 : 1000 : 0"
       inkscape:vp_x="0 : 0.5 : 1"
       sodipodi:type="inkscape:persp3d" />
    <inkscape:perspective
       id="perspective3652"
       inkscape:persp3d-origin="0.5 : 0.33333333 : 1"
       inkscape:vp_z="1 : 0.5 : 1"
       inkscape:vp_y="0 : 1000 : 0"
       inkscape:vp_x="0 : 0.5 : 1"
       sodipodi:type="inkscape:persp3d" />
    <inkscape:perspective
       id="perspective3674"
       inkscape:persp3d-origin="0.5 : 0.33333333 : 1"
       inkscape:vp_z="1 : 0.5 : 1"
       inkscape:vp_y="0 : 1000 : 0"
       inkscape:vp_x="0 : 0.5 : 1"
       sodipodi:type="inkscape:persp3d" />
    <inkscape:perspective
       id="perspective3724"
       inkscape:persp3d-origin="0.5 : 0.33333333 : 1"
       inkscape:vp_z="1 : 0.5 : 1"
       inkscape:vp_y="0 : 1000 : 0"
       inkscape:vp_x="0 : 0.5 : 1"
       sodipodi:type="inkscape:persp3d" />
    <linearGradient
       gradientUnits="userSpaceOnUse"
       y2="373.35645"
       x2="303.45538"
       y1="595.82269"
       x1="632.578"
       id="linearGradient2786"
       xlink:href="#linearGradient2780"
       inkscape:collect="always" />
    <linearGradient
       gradientTransform="matrix(0.745827,0,0,1,791.5946,155.6063)"
       gradientUnits="userSpaceOnUse"
       y2="615.7475"
       x2="-552.68896"
       y1="477.90662"
       x1="-552.68896"
       id="linearGradient2050"
       xlink:href="#linearGradient2044"
       inkscape:collect="always" />
    <linearGradient
       id="linearGradient2044"
       inkscape:collect="always">
      <stop
         id="stop2046"
         offset="0"
         style="stop-color:#3f0b0b;stop-opacity:1;" />
      <stop
         id="stop2048"
         offset="1"
         style="stop-color:#3f0b0b;stop-opacity:0;" />
    </linearGradient>
    <linearGradient
       id="linearGradient2780">
      <stop
         id="stop2782"
         offset="0"
         style="stop-color:#4b8247;stop-opacity:1;" />
      <stop
         id="stop2784"
         offset="1"
         style="stop-color:#0f170f;stop-opacity:0.0000000" />
    </linearGradient>
    <inkscape:perspective
       id="perspective3760"
       inkscape:persp3d-origin="345.6214 : 258.96126 : 1"
       inkscape:vp_z="691.2428 : 388.44189 : 1"
       inkscape:vp_y="0 : 1000 : 0"
       inkscape:vp_x="0 : 388.44189 : 1"
       sodipodi:type="inkscape:persp3d" />
    <linearGradient
       y2="270.47354"
       x2="293.61911"
       y1="380.45709"
       x1="422.09732"
       gradientUnits="userSpaceOnUse"
       id="linearGradient7093"
       xlink:href="#linearGradient3699"
       inkscape:collect="always" />
    <linearGradient
       y2="297.47092"
       x2="281.82761"
       y1="477.70328"
       x1="350.98654"
       gradientUnits="userSpaceOnUse"
       id="linearGradient7091"
       xlink:href="#linearGradient3675"
       inkscape:collect="always" />
    <linearGradient
       y2="373.02271"
       x2="260.63638"
       y1="605.64819"
       x1="354.944"
       gradientUnits="userSpaceOnUse"
       id="linearGradient7089"
       xlink:href="#linearGradient3683"
       inkscape:collect="always" />
    <linearGradient
       y2="586.12213"
       x2="268.51984"
       y1="764.25873"
       x1="342.13742"
       gradientUnits="userSpaceOnUse"
       id="linearGradient7087"
       xlink:href="#linearGradient3691"
       inkscape:collect="always" />
    <linearGradient
       y2="808.96942"
       x2="321.43039"
       y1="838.07526"
       x1="380.34406"
       gradientUnits="userSpaceOnUse"
       id="linearGradient7085"
       xlink:href="#linearGradient4602"
       inkscape:collect="always" />
    <linearGradient
       gradientUnits="userSpaceOnUse"
       y2="808.96942"
       x2="321.43039"
       y1="838.07526"
       x1="380.34406"
       id="linearGradient4608"
       xlink:href="#linearGradient4602"
       inkscape:collect="always" />
    <linearGradient
       gradientUnits="userSpaceOnUse"
       y2="270.47354"
       x2="293.61911"
       y1="380.45709"
       x1="422.09732"
       id="linearGradient3705"
       xlink:href="#linearGradient3699"
       inkscape:collect="always" />
    <linearGradient
       gradientUnits="userSpaceOnUse"
       y2="586.12213"
       x2="268.51984"
       y1="764.25873"
       x1="342.13742"
       id="linearGradient3697"
       xlink:href="#linearGradient3691"
       inkscape:collect="always" />
    <linearGradient
       gradientUnits="userSpaceOnUse"
       y2="373.02271"
       x2="260.63638"
       y1="605.64819"
       x1="354.944"
       id="linearGradient3689"
       xlink:href="#linearGradient3683"
       inkscape:collect="always" />
    <linearGradient
       gradientUnits="userSpaceOnUse"
       y2="297.47092"
       x2="281.82761"
       y1="477.70328"
       x1="350.98654"
       id="linearGradient3681"
       xlink:href="#linearGradient3675"
       inkscape:collect="always" />
    <linearGradient
       id="linearGradient3675">
      <stop
         id="stop3677"
         offset="0"
         style="stop-color:#134813;stop-opacity:1;" />
      <stop
         id="stop3679"
         offset="1"
         style="stop-color:black;stop-opacity:1;" />
    </linearGradient>
    <linearGradient
       id="linearGradient3683">
      <stop
         id="stop3685"
         offset="0"
         style="stop-color:#124712;stop-opacity:1;" />
      <stop
         id="stop3687"
         offset="1"
         style="stop-color:black;stop-opacity:1;" />
    </linearGradient>
    <linearGradient
       id="linearGradient3691">
      <stop
         id="stop3693"
         offset="0"
         style="stop-color:#134813;stop-opacity:1;" />
      <stop
         id="stop3695"
         offset="1"
         style="stop-color:black;stop-opacity:1;" />
    </linearGradient>
    <linearGradient
       id="linearGradient3699">
      <stop
         id="stop3701"
         offset="0"
         style="stop-color:#1c6d1c;stop-opacity:1;" />
      <stop
         id="stop3703"
         offset="1"
         style="stop-color:#0b2a0b;stop-opacity:1;" />
    </linearGradient>
    <linearGradient
       id="linearGradient4602">
      <stop
         id="stop4604"
         offset="0"
         style="stop-color:#502c0a;stop-opacity:1;" />
      <stop
         id="stop4606"
         offset="1"
         style="stop-color:#090501;stop-opacity:1;" />
    </linearGradient>
    <inkscape:perspective
       id="perspective3822"
       inkscape:persp3d-origin="225 : 243.33333 : 1"
       inkscape:vp_z="450 : 365 : 1"
       inkscape:vp_y="0 : 1000 : 0"
       inkscape:vp_x="0 : 365 : 1"
       sodipodi:type="inkscape:persp3d" />
    <inkscape:perspective
       id="perspective3876"
       inkscape:persp3d-origin="0.5 : 0.33333333 : 1"
       inkscape:vp_z="1 : 0.5 : 1"
       inkscape:vp_y="0 : 1000 : 0"
       inkscape:vp_x="0 : 0.5 : 1"
       sodipodi:type="inkscape:persp3d" />
    <linearGradient
       id="linearGradient4602-2">
      <stop
         id="stop4604-7"
         offset="0"
         style="stop-color:#502c0a;stop-opacity:1;" />
      <stop
         id="stop4606-4"
         offset="1"
         style="stop-color:#090501;stop-opacity:1;" />
    </linearGradient>
    <linearGradient
       id="linearGradient3691-2">
      <stop
         id="stop3693-0"
         offset="0"
         style="stop-color:#134813;stop-opacity:1;" />
      <stop
         id="stop3695-4"
         offset="1"
         style="stop-color:black;stop-opacity:1;" />
    </linearGradient>
    <linearGradient
       id="linearGradient3683-0">
      <stop
         id="stop3685-3"
         offset="0"
         style="stop-color:#124712;stop-opacity:1;" />
      <stop
         id="stop3687-0"
         offset="1"
         style="stop-color:black;stop-opacity:1;" />
    </linearGradient>
    <linearGradient
       id="linearGradient3675-0">
      <stop
         id="stop3677-0"
         offset="0"
         style="stop-color:#134813;stop-opacity:1;" />
      <stop
         id="stop3679-5"
         offset="1"
         style="stop-color:black;stop-opacity:1;" />
    </linearGradient>
    <linearGradient
       id="linearGradient3699-7">
      <stop
         id="stop3701-0"
         offset="0"
         style="stop-color:#1c6d1c;stop-opacity:1;" />
      <stop
         id="stop3703-3"
         offset="1"
         style="stop-color:#0b2a0b;stop-opacity:1;" />
    </linearGradient>
    <linearGradient
       inkscape:collect="always"
       xlink:href="#linearGradient4602-2"
       id="linearGradient4018"
       gradientUnits="userSpaceOnUse"
       x1="380.34406"
       y1="838.07526"
       x2="321.43039"
       y2="808.96942" />
    <linearGradient
       inkscape:collect="always"
       xlink:href="#linearGradient3691-2"
       id="linearGradient4020"
       gradientUnits="userSpaceOnUse"
       x1="342.13742"
       y1="764.25873"
       x2="268.51984"
       y2="586.12213" />
    <linearGradient
       inkscape:collect="always"
       xlink:href="#linearGradient3683-0"
       id="linearGradient4022"
       gradientUnits="userSpaceOnUse"
       x1="354.944"
       y1="605.64819"
       x2="260.63638"
       y2="373.02271" />
    <linearGradient
       inkscape:collect="always"
       xlink:href="#linearGradient3675-0"
       id="linearGradient4024"
       gradientUnits="userSpaceOnUse"
       x1="350.98654"
       y1="477.70328"
       x2="281.82761"
       y2="297.47092" />
    <linearGradient
       inkscape:collect="always"
       xlink:href="#linearGradient3699-7"
       id="linearGradient4026"
       gradientUnits="userSpaceOnUse"
       x1="422.09732"
       y1="380.45709"
       x2="293.61911"
       y2="270.47354" />
    <inkscape:perspective
       id="perspective4036"
       inkscape:persp3d-origin="0.5 : 0.33333333 : 1"
       inkscape:vp_z="1 : 0.5 : 1"
       inkscape:vp_y="0 : 1000 : 0"
       inkscape:vp_x="0 : 0.5 : 1"
       sodipodi:type="inkscape:persp3d" />
    <inkscape:perspective
       id="perspective4064"
       inkscape:persp3d-origin="0.5 : 0.33333333 : 1"
       inkscape:vp_z="1 : 0.5 : 1"
       inkscape:vp_y="0 : 1000 : 0"
       inkscape:vp_x="0 : 0.5 : 1"
       sodipodi:type="inkscape:persp3d" />
    <linearGradient
       y2="808.96942"
       x2="321.43039"
       y1="838.07526"
       x1="380.34406"
       gradientUnits="userSpaceOnUse"
       id="linearGradient7085-5"
       xlink:href="#linearGradient4602-5"
       inkscape:collect="always" />
    <linearGradient
       id="linearGradient4602-5">
      <stop
         id="stop4604-78"
         offset="0"
         style="stop-color:#502c0a;stop-opacity:1;" />
      <stop
         id="stop4606-1"
         offset="1"
         style="stop-color:#090501;stop-opacity:1;" />
    </linearGradient>
    <linearGradient
       y2="586.12213"
       x2="268.51984"
       y1="764.25873"
       x1="342.13742"
       gradientUnits="userSpaceOnUse"
       id="linearGradient7087-7"
       xlink:href="#linearGradient3691-8"
       inkscape:collect="always" />
    <linearGradient
       id="linearGradient3691-8">
      <stop
         id="stop3693-9"
         offset="0"
         style="stop-color:#134813;stop-opacity:1;" />
      <stop
         id="stop3695-1"
         offset="1"
         style="stop-color:black;stop-opacity:1;" />
    </linearGradient>
    <linearGradient
       y2="373.02271"
       x2="260.63638"
       y1="605.64819"
       x1="354.944"
       gradientUnits="userSpaceOnUse"
       id="linearGradient7089-3"
       xlink:href="#linearGradient3683-9"
       inkscape:collect="always" />
    <linearGradient
       id="linearGradient3683-9">
      <stop
         id="stop3685-2"
         offset="0"
         style="stop-color:#124712;stop-opacity:1;" />
      <stop
         id="stop3687-8"
         offset="1"
         style="stop-color:black;stop-opacity:1;" />
    </linearGradient>
    <linearGradient
       y2="297.47092"
       x2="281.82761"
       y1="477.70328"
       x1="350.98654"
       gradientUnits="userSpaceOnUse"
       id="linearGradient7091-2"
       xlink:href="#linearGradient3675-06"
       inkscape:collect="always" />
    <linearGradient
       id="linearGradient3675-06">
      <stop
         id="stop3677-5"
         offset="0"
         style="stop-color:#134813;stop-opacity:1;" />
      <stop
         id="stop3679-6"
         offset="1"
         style="stop-color:black;stop-opacity:1;" />
    </linearGradient>
    <linearGradient
       y2="270.47354"
       x2="293.61911"
       y1="380.45709"
       x1="422.09732"
       gradientUnits="userSpaceOnUse"
       id="linearGradient7093-8"
       xlink:href="#linearGradient3699-0"
       inkscape:collect="always" />
    <linearGradient
       id="linearGradient3699-0">
      <stop
         id="stop3701-5"
         offset="0"
         style="stop-color:#1c6d1c;stop-opacity:1;" />
      <stop
         id="stop3703-2"
         offset="1"
         style="stop-color:#0b2a0b;stop-opacity:1;" />
    </linearGradient>
    <inkscape:perspective
       id="perspective4064-8"
       inkscape:persp3d-origin="0.5 : 0.33333333 : 1"
       inkscape:vp_z="1 : 0.5 : 1"
       inkscape:vp_y="0 : 1000 : 0"
       inkscape:vp_x="0 : 0.5 : 1"
       sodipodi:type="inkscape:persp3d" />
    <linearGradient
       y2="808.96942"
       x2="321.43039"
       y1="838.07526"
       x1="380.34406"
       gradientUnits="userSpaceOnUse"
       id="linearGradient7085-8"
       xlink:href="#linearGradient4602-8"
       inkscape:collect="always" />
    <linearGradient
       id="linearGradient4602-8">
      <stop
         id="stop4604-5"
         offset="0"
         style="stop-color:#502c0a;stop-opacity:1;" />
      <stop
         id="stop4606-6"
         offset="1"
         style="stop-color:#090501;stop-opacity:1;" />
    </linearGradient>
    <linearGradient
       y2="586.12213"
       x2="268.51984"
       y1="764.25873"
       x1="342.13742"
       gradientUnits="userSpaceOnUse"
       id="linearGradient7087-9"
       xlink:href="#linearGradient3691-4"
       inkscape:collect="always" />
    <linearGradient
       id="linearGradient3691-4">
      <stop
         id="stop3693-98"
         offset="0"
         style="stop-color:#134813;stop-opacity:1;" />
      <stop
         id="stop3695-9"
         offset="1"
         style="stop-color:black;stop-opacity:1;" />
    </linearGradient>
    <linearGradient
       y2="373.02271"
       x2="260.63638"
       y1="605.64819"
       x1="354.944"
       gradientUnits="userSpaceOnUse"
       id="linearGradient7089-7"
       xlink:href="#linearGradient3683-3"
       inkscape:collect="always" />
    <linearGradient
       id="linearGradient3683-3">
      <stop
         id="stop3685-1"
         offset="0"
         style="stop-color:#124712;stop-opacity:1;" />
      <stop
         id="stop3687-4"
         offset="1"
         style="stop-color:black;stop-opacity:1;" />
    </linearGradient>
    <linearGradient
       y2="297.47092"
       x2="281.82761"
       y1="477.70328"
       x1="350.98654"
       gradientUnits="userSpaceOnUse"
       id="linearGradient7091-8"
       xlink:href="#linearGradient3675-6"
       inkscape:collect="always" />
    <linearGradient
       id="linearGradient3675-6">
      <stop
         id="stop3677-3"
         offset="0"
         style="stop-color:#134813;stop-opacity:1;" />
      <stop
         id="stop3679-9"
         offset="1"
         style="stop-color:black;stop-opacity:1;" />
    </linearGradient>
    <linearGradient
       y2="270.47354"
       x2="293.61911"
       y1="380.45709"
       x1="422.09732"
       gradientUnits="userSpaceOnUse"
       id="linearGradient7093-2"
       xlink:href="#linearGradient3699-3"
       inkscape:collect="always" />
    <linearGradient
       id="linearGradient3699-3">
      <stop
         id="stop3701-3"
         offset="0"
         style="stop-color:#1c6d1c;stop-opacity:1;" />
      <stop
         id="stop3703-4"
         offset="1"
         style="stop-color:#0b2a0b;stop-opacity:1;" />
    </linearGradient>
    <inkscape:perspective
       id="perspective3780"
       inkscape:persp3d-origin="0.5 : 0.33333333 : 1"
       inkscape:vp_z="1 : 0.5 : 1"
       inkscape:vp_y="0 : 1000 : 0"
       inkscape:vp_x="0 : 0.5 : 1"
       sodipodi:type="inkscape:persp3d" />
    <inkscape:perspective
       id="perspective3851"
       inkscape:persp3d-origin="0.5 : 0.33333333 : 1"
       inkscape:vp_z="1 : 0.5 : 1"
       inkscape:vp_y="0 : 1000 : 0"
       inkscape:vp_x="0 : 0.5 : 1"
       sodipodi:type="inkscape:persp3d" />
    <inkscape:perspective
       id="perspective3211"
       inkscape:persp3d-origin="0.5 : 0.33333333 : 1"
       inkscape:vp_z="1 : 0.5 : 1"
       inkscape:vp_y="0 : 1000 : 0"
       inkscape:vp_x="0 : 0.5 : 1"
       sodipodi:type="inkscape:persp3d" />
    <inkscape:perspective
       id="perspective3066"
       inkscape:persp3d-origin="0.5 : 0.33333333 : 1"
       inkscape:vp_z="1 : 0.5 : 1"
       inkscape:vp_y="0 : 1000 : 0"
       inkscape:vp_x="0 : 0.5 : 1"
       sodipodi:type="inkscape:persp3d" />
    <inkscape:perspective
       id="perspective3494"
       inkscape:persp3d-origin="0.5 : 0.33333333 : 1"
       inkscape:vp_z="1 : 0.5 : 1"
       inkscape:vp_y="0 : 1000 : 0"
       inkscape:vp_x="0 : 0.5 : 1"
       sodipodi:type="inkscape:persp3d" />
    <linearGradient
       inkscape:collect="always"
       xlink:href="#linearGradient3211"
       id="linearGradient1574"
       gradientUnits="userSpaceOnUse"
       x1="440.10486"
       y1="613.38153"
       x2="440.10486"
       y2="693.25641" />
    <linearGradient
       id="linearGradient3211">
      <stop
         style="stop-color: rgb(180, 180, 180); stop-opacity: 1;"
         offset="0"
         id="stop3213" />
      <stop
         style="stop-color: rgb(240, 240, 240); stop-opacity: 0;"
         offset="1"
         id="stop3215" />
    </linearGradient>
    <inkscape:perspective
       id="perspective3677"
       inkscape:persp3d-origin="0.5 : 0.33333333 : 1"
       inkscape:vp_z="1 : 0.5 : 1"
       inkscape:vp_y="0 : 1000 : 0"
       inkscape:vp_x="0 : 0.5 : 1"
       sodipodi:type="inkscape:persp3d" />
    <inkscape:perspective
       id="perspective3969"
       inkscape:persp3d-origin="0.5 : 0.33333333 : 1"
       inkscape:vp_z="1 : 0.5 : 1"
       inkscape:vp_y="0 : 1000 : 0"
       inkscape:vp_x="0 : 0.5 : 1"
       sodipodi:type="inkscape:persp3d" />
  </defs>
  <sodipodi:namedview
     id="base"
     pagecolor="#ffffff"
     bordercolor="#666666"
     borderopacity="1.0"
     inkscape:pageopacity="0.0"
     inkscape:pageshadow="2"
     inkscape:zoom="0.76134002"
     inkscape:cx="-536.53107"
     inkscape:cy="245.45956"
     inkscape:document-units="px"
     inkscape:current-layer="layer1"
     showgrid="false"
     showguides="false"
     inkscape:guide-bbox="true"
     inkscape:snap-global="true"
     inkscape:snap-grids="false"
     inkscape:window-width="1920"
     inkscape:window-height="1127"
     inkscape:window-x="0"
     inkscape:window-y="24"
     inkscape:window-maximized="1">
    <sodipodi:guide
       orientation="1,0"
       position="171.31735,84.827036"
       id="guide6545" />
    <sodipodi:guide
       orientation="1,0"
       position="445.75776,182.96027"
       id="guide3043" />
    <sodipodi:guide
       orientation="-0.5,0.8660254"
       position="317.11305,204.32853"
       id="guide3045" />
    <sodipodi:guide
       orientation="-0.5,0.8660254"
       position="274.91475,260.0545"
       id="guide3047" />
    <sodipodi:guide
       orientation="0.5,0.8660254"
       position="445.75776,243.27528"
       id="guide3049" />
    <sodipodi:guide
       orientation="0.5,0.8660254"
       position="317.11305,466.09445"
       id="guide3051" />
    <sodipodi:guide
       orientation="1,0"
       position="42.672643,159.10009"
       id="guide3055" />
    <sodipodi:guide
       orientation="1,0"
       position="317.11305,317.54834"
       id="guide3057" />
    <sodipodi:guide
       orientation="0.5,0.8660254"
       position="171.31735,233.37315"
       id="guide3059" />
    <sodipodi:guide
       orientation="0.5,0.8660254"
       position="810.01503,326.00194"
       id="guide3061" />
  </sodipodi:namedview>
  <metadata
     id="metadata6514">
    <rdf:RDF>
      <cc:Work
         rdf:about="">
        <dc:format>image/svg+xml</dc:format>
        <dc:type
           rdf:resource="http://purl.org/dc/dcmitype/StillImage" />
        <dc:title></dc:title>
      </cc:Work>
    </rdf:RDF>
  </metadata>
  <g
     inkscape:label="Layer 1"
     inkscape:groupmode="layer"
     id="layer1"
     transform="translate(-91.713295,-272.23724)">
    <rect
       style="fill:#ffffff;fill-opacity:1;stroke:#000000;stroke-width:8.0456419;stroke-linejoin:round;stroke-miterlimit:10;stroke-opacity:1;stroke-dasharray:none;stroke-dashoffset:0"
       id="rect2851"
       width="508.54657"
       height="492.11621"
       x="98.134727"
       y="278.37305"
       rx="11.313708"
       ry="11.313708" />
    <g
       id="g5816"
       transform="matrix(10.757232,0,0,8.5673125,-2777.2912,-2077.953)">
      <path
         id="path12462"
         d="m 291.125,317.8125 c -2.58333,0 -5.17049,0.64775 -7.125,1.625 -0.97725,0.48863 -1.80319,1.04137 -2.40625,1.6875 -0.60306,0.64613 -0.96875,1.39583 -0.96875,2.1875 0,0.79167 0.36569,1.54136 0.96875,2.1875 0.60306,0.64614 1.429,1.19887 2.40625,1.6875 1.95451,0.97725 4.54167,1.625 7.125,1.625 2.58334,0 5.13925,-0.64775 7.09375,-1.625 0.97725,-0.48863 1.80319,-1.04136 2.40625,-1.6875 0.60306,-0.64614 1,-1.39583 1,-2.1875 0,-0.79167 -0.39694,-1.54137 -1,-2.1875 -0.60306,-0.64613 -1.429,-1.19887 -2.40625,-1.6875 -1.95451,-0.97725 -4.51042,-1.625 -7.09375,-1.625 z m 0,1 c 2.41667,0 4.8295,0.60225 6.625,1.5 0.89775,0.44887 1.63431,0.97426 2.125,1.5 0.49069,0.52574 0.75,1.04167 0.75,1.5 0,0.45833 -0.25931,0.97426 -0.75,1.5 -0.49069,0.52574 -1.22725,1.05113 -2.125,1.5 -1.79549,0.89775 -4.20833,1.5 -6.625,1.5 -2.41667,0 -4.86075,-0.60225 -6.65625,-1.5 -0.89775,-0.44887 -1.63431,-0.97426 -2.125,-1.5 -0.49069,-0.52574 -0.71875,-1.04166 -0.71875,-1.5 0,-0.45833 0.22806,-0.97426 0.71875,-1.5 0.49069,-0.52574 1.22725,-1.05113 2.125,-1.5 1.7955,-0.89775 4.23959,-1.5 6.65625,-1.5 z"
         style="fill:#000000;fill-opacity:1;fill-rule:evenodd;stroke:none" />
      <path
         sodipodi:nodetypes="ccccccccccccsc"
         id="path12468"
         d="m 290.625,283.1875 c 0,0 0,0.0625 0,0.0625 -2e-5,9e-5 -0.0147,-0.004 -10,39.9375 l 0.71875,0.5625 10,-5 0.28125,-0.125 0,-0.3125 0,-35 -1,-0.125 z m 0,4.125 0,30.6875 -8.78125,4.375 c 4.70317,-18.81265 7.28781,-29.08876 8.5,-33.9375 0.16071,-0.64286 0.15921,-0.63682 0.28125,-1.125 z"
         style="fill:#000000;fill-opacity:1;fill-rule:evenodd;stroke:none" />
      <path
         sodipodi:nodetypes="ccccccccccccc"
         id="path12470"
         d="m 291.59375,283.1875 -0.96875,0.125 0,0.125 0,44.875 0.71875,0.4375 10,-5 0.25,-0.5625 -9.96875,-39.875 -0.0312,-0.125 z m 0.0312,4.25 8.90625,35.625 -8.90625,4.4375 0,-40.0625 z"
         style="fill:#000000;fill-opacity:1;fill-rule:evenodd;stroke:none" />
      <path
         id="path12474"
         d="m 290.75,288.96875 c -0.16161,0.16161 -0.65774,0.47661 -1.125,0.84375 -0.23363,0.18357 -0.46788,0.39202 -0.65625,0.625 -0.18837,0.23298 -0.34375,0.52083 -0.34375,0.875 0,0.21305 0.0759,0.45548 0.21875,0.59375 0.14282,0.13827 0.32476,0.20581 0.46875,0.25 0.28798,0.0884 0.55852,0.10162 0.8125,0.125 0.19503,0.0179 0.30387,0.0383 0.40625,0.0625 -0.0389,0.0545 -0.0551,0.0844 -0.1875,0.1875 -0.21016,0.16368 -0.52474,0.33608 -0.84375,0.53125 -0.31901,0.19517 -0.6562,0.39969 -0.9375,0.65625 -0.2813,0.25656 -0.53125,0.609 -0.53125,1.0625 0,0.24758 0.0942,0.49733 0.25,0.65625 0.15576,0.15892 0.35535,0.24638 0.53125,0.3125 0.3518,0.13223 0.7223,0.1933 1.0625,0.25 0.32685,0.0545 0.59823,0.13108 0.71875,0.1875 -0.0367,0.0749 -0.16882,0.26858 -0.5,0.46875 -0.35252,0.21307 -0.82995,0.42793 -1.3125,0.65625 -0.48255,0.22832 -0.97243,0.45868 -1.375,0.75 -0.40257,0.29132 -0.78125,0.69435 -0.78125,1.25 0,0.30238 0.14335,0.57832 0.34375,0.75 0.2004,0.17168 0.44929,0.26793 0.6875,0.34375 0.47642,0.15164 1.01316,0.23526 1.53125,0.3125 0.51809,0.0772 0.99494,0.16683 1.25,0.28125 0.12753,0.0572 0.18024,0.11404 0.1875,0.125 0.007,0.011 0.0209,-0.0191 0,0.0625 -0.0319,0.12447 -0.28543,0.43381 -0.78125,0.71875 -0.49582,0.28494 -1.17078,0.54465 -1.84375,0.84375 -0.67297,0.2991 -1.36019,0.62049 -1.90625,1 -0.54606,0.37951 -1.03125,0.87968 -1.03125,1.5625 0,0.36089 0.20004,0.68562 0.4375,0.90625 0.23746,0.22063 0.53226,0.38336 0.84375,0.5 0.62298,0.23328 1.34799,0.36027 2.0625,0.5 0.71451,0.13973 1.40655,0.27475 1.8125,0.46875 0.20298,0.097 0.32597,0.21102 0.375,0.28125 0.049,0.0702 0.061,0.11291 0.0312,0.25 -0.0522,0.24042 -0.40556,0.60692 -1.0625,0.96875 -0.65694,0.36183 -1.55159,0.70149 -2.4375,1.0625 -0.88591,0.36101 -1.76196,0.73152 -2.46875,1.1875 -0.70679,0.45598 -1.3125,1.05923 -1.3125,1.875 0,0.42628 0.18891,0.81476 0.46875,1.09375 0.27984,0.27899 0.63574,0.47949 1.03125,0.65625 0.79102,0.35352 1.77364,0.6091 2.71875,0.84375 0.94511,0.23465 1.85448,0.4582 2.4375,0.71875 0.29151,0.13027 0.51365,0.28077 0.59375,0.375 0.0801,0.0942 0.0608,0.0819 0.0312,0.1875 -0.0743,0.26578 -0.44381,0.63646 -1.125,1 -0.68119,0.36354 -1.60278,0.72314 -2.59375,1.03125 -1.98193,0.61622 -4.21449,1.08424 -5.5,1.625 l 0.40625,0.9375 c 1.09171,-0.45923 3.33657,-0.99122 5.375,-1.625 1.01922,-0.31689 1.99854,-0.64479 2.78125,-1.0625 0.78271,-0.41771 1.41973,-0.92203 1.625,-1.65625 0.11028,-0.39444 -0.009,-0.81005 -0.25,-1.09375 -0.24116,-0.2837 -0.57344,-0.46231 -0.9375,-0.625 -0.72812,-0.32539 -1.65088,-0.54715 -2.59375,-0.78125 -0.94287,-0.2341 -1.9026,-0.48633 -2.5625,-0.78125 -0.32995,-0.14746 -0.57249,-0.32293 -0.71875,-0.46875 -0.14626,-0.14582 -0.1875,-0.23878 -0.1875,-0.375 0,-0.30923 0.25481,-0.6513 0.84375,-1.03125 0.58894,-0.37995 1.4346,-0.73601 2.3125,-1.09375 0.8779,-0.35774 1.78393,-0.71339 2.53125,-1.125 0.74732,-0.41161 1.39761,-0.89667 1.5625,-1.65625 0.0788,-0.36291 0.007,-0.7216 -0.1875,-1 -0.19435,-0.2784 -0.45435,-0.45247 -0.75,-0.59375 -0.59129,-0.28257 -1.33882,-0.45223 -2.0625,-0.59375 -0.72368,-0.14152 -1.42344,-0.25671 -1.90625,-0.4375 -0.2414,-0.0904 -0.41268,-0.20012 -0.5,-0.28125 -0.0873,-0.0811 -0.125,-0.11089 -0.125,-0.1875 0,-0.19217 0.1931,-0.44983 0.625,-0.75 0.4319,-0.30017 1.05579,-0.58035 1.71875,-0.875 0.66296,-0.29465 1.35938,-0.60526 1.9375,-0.9375 0.57812,-0.33224 1.08989,-0.68697 1.25,-1.3125 0.0751,-0.29337 0.034,-0.63498 -0.125,-0.875 -0.159,-0.24002 -0.39553,-0.36581 -0.625,-0.46875 -0.45895,-0.20589 -0.97009,-0.29599 -1.5,-0.375 -0.52991,-0.079 -1.07268,-0.14383 -1.40625,-0.25 -0.16679,-0.0531 -0.27466,-0.12383 -0.3125,-0.15625 0,-0.0693 0.0514,-0.22596 0.34375,-0.4375 0.29233,-0.21154 0.74538,-0.43228 1.21875,-0.65625 0.47337,-0.22397 0.97571,-0.45853 1.40625,-0.71875 0.43054,-0.26022 0.84284,-0.52696 1,-1.03125 0.0716,-0.22968 0.0784,-0.49862 -0.0312,-0.71875 -0.10967,-0.22013 -0.29767,-0.37946 -0.46875,-0.46875 -0.34216,-0.17857 -0.71129,-0.22272 -1.0625,-0.28125 -0.35121,-0.0585 -0.6862,-0.11654 -0.875,-0.1875 -0.0716,-0.0269 -0.10554,-0.0176 -0.125,-0.0312 0,-0.0465 0.0376,-0.14726 0.21875,-0.3125 0.18117,-0.16524 0.47136,-0.34166 0.78125,-0.53125 0.30989,-0.18959 0.64836,-0.3998 0.9375,-0.625 0.28914,-0.2252 0.55167,-0.47402 0.625,-0.90625 0.0344,-0.20246 0.0242,-0.44607 -0.0937,-0.625 -0.118,-0.17893 -0.28978,-0.2817 -0.4375,-0.34375 -0.29544,-0.1241 -0.57931,-0.13191 -0.84375,-0.15625 -0.22565,-0.0208 -0.40533,-0.0665 -0.53125,-0.0937 0.0192,-0.0417 0.008,-0.0579 0.0625,-0.125 0.10851,-0.13421 0.29613,-0.27732 0.5,-0.4375 0.40773,-0.32036 0.88036,-0.63036 1.21875,-0.96875 l -0.71875,-0.6875 z"
         style="fill:#000000;fill-opacity:1;fill-rule:evenodd;stroke:none" />
      <path
         id="path12472"
         d="m 291.46875,288.96875 -0.71875,0.6875 c 0.33839,0.33839 0.84227,0.64839 1.25,0.96875 0.20387,0.16018 0.36024,0.30329 0.46875,0.4375 0.0573,0.0709 0.0751,0.0827 0.0937,0.125 -0.12236,0.0293 -0.32392,0.0718 -0.5625,0.0937 -0.26444,0.0243 -0.54832,0.0322 -0.84375,0.15625 -0.14772,0.062 -0.28825,0.16482 -0.40625,0.34375 -0.118,0.17893 -0.15935,0.42254 -0.125,0.625 0.0733,0.43223 0.36711,0.68105 0.65625,0.90625 0.28914,0.2252 0.59636,0.43541 0.90625,0.625 0.30989,0.18959 0.60008,0.36601 0.78125,0.53125 0.18117,0.16524 0.21875,0.26599 0.21875,0.3125 -0.0195,0.0137 -0.0534,0.004 -0.125,0.0312 -0.18879,0.071 -0.52379,0.12897 -0.875,0.1875 -0.35121,0.0585 -0.72034,0.10268 -1.0625,0.28125 -0.17108,0.0893 -0.32783,0.24862 -0.4375,0.46875 -0.10967,0.22013 -0.13408,0.48907 -0.0625,0.71875 0.15716,0.50429 0.56946,0.77103 1,1.03125 0.43054,0.26022 0.93288,0.49478 1.40625,0.71875 0.47337,0.22397 0.92642,0.44471 1.21875,0.65625 0.29233,0.21154 0.375,0.36816 0.375,0.4375 0,0.0101 0.007,-0.0324 -0.0312,0 -0.0378,0.0324 -0.14571,0.10316 -0.3125,0.15625 -0.33357,0.10617 -0.8451,0.17099 -1.375,0.25 -0.5299,0.079 -1.0723,0.16911 -1.53125,0.375 -0.22947,0.10294 -0.466,0.22874 -0.625,0.46875 -0.159,0.24001 -0.20009,0.58163 -0.125,0.875 0.16011,0.62553 0.70313,0.98026 1.28125,1.3125 0.57812,0.33224 1.24329,0.64285 1.90625,0.9375 0.66296,0.29465 1.3181,0.57483 1.75,0.875 0.4319,0.30017 0.59375,0.55783 0.59375,0.75 0,0.0766 -0.006,0.10637 -0.0937,0.1875 -0.0873,0.0811 -0.2586,0.19086 -0.5,0.28125 -0.48281,0.18079 -1.21382,0.29598 -1.9375,0.4375 -0.72368,0.14152 -1.43996,0.31118 -2.03125,0.59375 -0.29565,0.14128 -0.5869,0.31535 -0.78125,0.59375 -0.19435,0.2784 -0.26628,0.63709 -0.1875,1 0.16489,0.75958 0.81518,1.24464 1.5625,1.65625 0.74732,0.41161 1.65335,0.76726 2.53125,1.125 0.8779,0.35774 1.72356,0.7138 2.3125,1.09375 0.58894,0.37995 0.84375,0.72202 0.84375,1.03125 0,0.13622 -0.0412,0.22918 -0.1875,0.375 -0.14626,0.14582 -0.3888,0.32129 -0.71875,0.46875 -0.6599,0.29492 -1.61964,0.54715 -2.5625,0.78125 -0.94286,0.2341 -1.86563,0.45586 -2.59375,0.78125 -0.36406,0.16269 -0.69634,0.3413 -0.9375,0.625 -0.24116,0.2837 -0.36027,0.69931 -0.25,1.09375 0.20527,0.73422 0.84229,1.23854 1.625,1.65625 0.78271,0.41771 1.76203,0.74561 2.78125,1.0625 2.03844,0.63378 4.31453,1.16576 5.40625,1.625 l 0.375,-0.9375 c -1.28552,-0.54076 -3.48681,-1.00878 -5.46875,-1.625 -0.99097,-0.30811 -1.91256,-0.66771 -2.59375,-1.03125 -0.68119,-0.36354 -1.08194,-0.73422 -1.15625,-1 -0.0295,-0.10556 -0.0176,-0.0933 0.0625,-0.1875 0.0801,-0.0942 0.27099,-0.24473 0.5625,-0.375 0.58302,-0.26055 1.49239,-0.4841 2.4375,-0.71875 0.94511,-0.23465 1.92773,-0.49023 2.71875,-0.84375 0.39551,-0.17676 0.75141,-0.37726 1.03125,-0.65625 0.27984,-0.27899 0.46875,-0.66747 0.46875,-1.09375 0,-0.81576 -0.57446,-1.41902 -1.28125,-1.875 -0.70679,-0.45598 -1.61409,-0.82649 -2.5,-1.1875 -0.88591,-0.36101 -1.74931,-0.70067 -2.40625,-1.0625 -0.65694,-0.36183 -1.04156,-0.72833 -1.09375,-0.96875 -0.0298,-0.13709 -0.0178,-0.17977 0.0312,-0.25 0.049,-0.0702 0.17202,-0.18425 0.375,-0.28125 0.40595,-0.194 1.09799,-0.32902 1.8125,-0.46875 0.71451,-0.13973 1.47077,-0.26672 2.09375,-0.5 0.31149,-0.11664 0.57504,-0.27937 0.8125,-0.5 0.23746,-0.22063 0.4375,-0.54536 0.4375,-0.90625 0,-0.68282 -0.48519,-1.18299 -1.03125,-1.5625 -0.54606,-0.37951 -1.23328,-0.7009 -1.90625,-1 -0.67297,-0.2991 -1.34793,-0.55881 -1.84375,-0.84375 -0.49582,-0.28494 -0.74939,-0.59428 -0.78125,-0.71875 -0.0209,-0.0816 -0.007,-0.0515 0,-0.0625 0.007,-0.011 0.06,-0.0678 0.1875,-0.125 0.25506,-0.11442 0.73191,-0.20401 1.25,-0.28125 0.51809,-0.0772 1.08609,-0.16086 1.5625,-0.3125 0.23821,-0.0758 0.45585,-0.17207 0.65625,-0.34375 0.2004,-0.17168 0.375,-0.44762 0.375,-0.75 0,-0.55565 -0.37868,-0.95868 -0.78125,-1.25 -0.40257,-0.29132 -0.89245,-0.52168 -1.375,-0.75 -0.48255,-0.22832 -0.95997,-0.44318 -1.3125,-0.65625 -0.33186,-0.20058 -0.49506,-0.3942 -0.53125,-0.46875 0.12052,-0.0564 0.3919,-0.13302 0.71875,-0.1875 0.3402,-0.0567 0.74195,-0.11777 1.09375,-0.25 0.1759,-0.0661 0.34424,-0.15358 0.5,-0.3125 0.15576,-0.15892 0.25,-0.40867 0.25,-0.65625 0,-0.4535 -0.24995,-0.80594 -0.53125,-1.0625 -0.2813,-0.25656 -0.61848,-0.46108 -0.9375,-0.65625 -0.31902,-0.19517 -0.63359,-0.36757 -0.84375,-0.53125 -0.13237,-0.10309 -0.14857,-0.13304 -0.1875,-0.1875 0.10238,-0.0242 0.21122,-0.0446 0.40625,-0.0625 0.25398,-0.0234 0.55577,-0.0366 0.84375,-0.125 0.14399,-0.0442 0.29468,-0.11173 0.4375,-0.25 0.14282,-0.13827 0.25,-0.3807 0.25,-0.59375 0,-0.35417 -0.18663,-0.64202 -0.375,-0.875 -0.18837,-0.23298 -0.39137,-0.44143 -0.625,-0.625 -0.46727,-0.36714 -0.99464,-0.68214 -1.15625,-0.84375 z"
         style="fill:#000000;fill-opacity:1;fill-rule:evenodd;stroke:none" />
      <path
         id="path13351"
         d="m 291.1135,280.82734 c -0.82253,0 -1.5,0.67747 -1.5,1.5 0,0.82253 0.67747,1.5 1.5,1.5 0.82253,0 1.5,-0.67747 1.5,-1.5 0,-0.82253 -0.67747,-1.5 -1.5,-1.5 z m 0,1 c 0.28147,0 0.5,0.21853 0.5,0.5 0,0.28147 -0.21853,0.5 -0.5,0.5 -0.28147,0 -0.5,-0.21853 -0.5,-0.5 0,-0.28147 0.21853,-0.5 0.5,-0.5 z"
         style="fill:#000000;fill-opacity:1;stroke:none" />
      <path
         id="path12476"
         d="m 294.34783,285.37234 c 1.706,-1.76177 1.64572,-4.54146 -0.0884,-6.27557 -1.75259,-1.75259 -4.61138,-1.75258 -6.36396,0 -1.75258,1.75258 -1.75259,4.61137 0,6.36396 l 0.7071,-0.70711 c -1.36999,-1.37 -1.37,-3.57974 0,-4.94975 1.37001,-1.37 3.57975,-1.36999 4.94975,0 1.35651,1.35651 1.33451,3.57163 0,4.94975 l 0.7955,0.61872 z"
         style="fill:#000000;fill-opacity:1;stroke:none" />
    </g>
  </g>
</svg>
